<?xml version="1.0" encoding="UTF-8"?><svg xmlns="http://www.w3.org/2000/svg" xmlns:xlink="http://www.w3.org/1999/xlink" viewBox="0 0 1200 1200"><defs><style>.cls-1{fill:url(#linear-gradient-12);}.cls-1,.cls-2,.cls-3,.cls-4,.cls-5,.cls-6,.cls-7,.cls-8,.cls-9,.cls-10,.cls-11,.cls-12,.cls-13,.cls-14,.cls-15,.cls-16,.cls-17,.cls-18,.cls-19,.cls-20,.cls-21,.cls-22,.cls-23,.cls-24,.cls-25,.cls-26,.cls-27,.cls-28,.cls-29,.cls-30{stroke-width:0px;}.cls-31{stroke:#000;stroke-linecap:round;stroke-linejoin:round;stroke-width:5.99px;}.cls-31,.cls-24{fill:#eb0037;}.cls-2{fill:url(#linear-gradient);}.cls-3{opacity:.75;}.cls-3,.cls-6{fill:#1c2538;}.cls-4{fill:url(#linear-gradient-6);}.cls-32{clip-path:url(#clippath-2);}.cls-5{fill:#1a1a1a;}.cls-7{fill:url(#linear-gradient-11);}.cls-8{fill:url(#linear-gradient-5);}.cls-9{fill:none;}.cls-33{clip-path:url(#clippath-1);}.cls-10{fill:#525a6a;}.cls-11{fill:url(#linear-gradient-13);}.cls-12{fill:#97afbf;opacity:.25;}.cls-13{fill:#fff;}.cls-14{fill:#7a1123;}.cls-15{fill:url(#linear-gradient-14);}.cls-16{fill:url(#linear-gradient-2);}.cls-17{fill:#d4d8df;}.cls-18{fill:url(#linear-gradient-7);}.cls-19{fill:#727c92;}.cls-20{fill:url(#linear-gradient-3);}.cls-21{fill:#ff7676;}.cls-34{clip-path:url(#clippath);}.cls-22{fill:url(#linear-gradient-9);}.cls-23{fill:url(#radial-gradient);}.cls-35{clip-path:url(#clippath-3);}.cls-25{fill:url(#linear-gradient-8);}.cls-26{fill:#272728;}.cls-27{fill:#a3ea2a;}.cls-28{fill:url(#linear-gradient-10);}.cls-29{fill:url(#linear-gradient-4);}.cls-36{opacity:.59;}.cls-30{fill:#f2f2f2;}</style><linearGradient id="linear-gradient" x1="819.04" y1="91.79" x2="819.04" y2="1146.77" gradientUnits="userSpaceOnUse"><stop offset="0" stop-color="#eb0037"/><stop offset="1" stop-color="#7a1123"/></linearGradient><linearGradient id="linear-gradient-2" x1="980.94" y1="91.79" x2="980.94" y2="1146.77" gradientUnits="userSpaceOnUse"><stop offset="0" stop-color="#eb0037"/><stop offset="1" stop-color="#7a1123"/></linearGradient><linearGradient id="linear-gradient-3" x1="896.86" y1="91.79" x2="896.86" y2="1146.77" gradientUnits="userSpaceOnUse"><stop offset="0" stop-color="#eb0037"/><stop offset="1" stop-color="#7a1123"/></linearGradient><linearGradient id="linear-gradient-4" x1="369.05" y1="911.86" x2="238.14" y2="882.49" gradientUnits="userSpaceOnUse"><stop offset="0" stop-color="#818aa3"/><stop offset=".71" stop-color="#444b5c"/></linearGradient><linearGradient id="linear-gradient-5" x1="598.35" y1="914.13" x2="730.5" y2="890.94" gradientUnits="userSpaceOnUse"><stop offset=".24" stop-color="#444b5c"/><stop offset=".91" stop-color="#808aa2"/></linearGradient><clipPath id="clippath"><path class="cls-9" d="m658.8,723.18c18.19,40.96,36.94,92.22,50.53,152.69,17.09,76.03,20.78,143.25,19.77,195.54-20.88,0-41.75,0-62.63,0,3.43-45.96.81-111.32-18.67-187.84-14.7-57.72-33.76-105.46-52.72-139.82,21.24-6.86,42.48-13.71,63.71-20.57Z"/></clipPath><clipPath id="clippath-1"><path class="cls-9" d="m216.55,495.28c-27.28,25.02-61.19,64.51-80.47,120.21-16.57,47.86-16.79,91.61-16.94,122.2-.14,29.15,2.41,53.66,5.02,71.52h53.65c-1.41-17.38-2.72-41.98-1.99-71.53.94-37.93,1.73-62.96,10.88-93.4,4.87-16.22,13.94-40.03,31.84-66.55-.66-27.49-1.32-54.97-1.99-82.46Z"/></clipPath><clipPath id="clippath-2"><path class="cls-9" d="m339.28,723.18c-18.19,40.96-36.94,92.22-50.53,152.69-17.09,76.03-20.78,143.25-19.77,195.54h62.63c-3.43-45.96-.81-111.32,18.67-187.84,14.7-57.72,33.76-105.46,52.72-139.82-21.24-6.86-42.48-13.71-63.71-20.57Z"/></clipPath><linearGradient id="linear-gradient-6" x1="191.07" y1="453.71" x2="191.07" y2="638.24" gradientUnits="userSpaceOnUse"><stop offset="0" stop-color="#d4d8df"/><stop offset=".55" stop-color="#525a6a"/></linearGradient><radialGradient id="radial-gradient" cx="118.67" cy="642.5" fx="118.67" fy="642.5" r="74.67" gradientUnits="userSpaceOnUse"><stop offset="0" stop-color="#eb0037"/><stop offset="1" stop-color="#7a1123"/></radialGradient><linearGradient id="linear-gradient-7" x1="375.61" y1="1065.98" x2="265.22" y2="1095.79" gradientUnits="userSpaceOnUse"><stop offset="0" stop-color="#d4d8df"/><stop offset=".09" stop-color="#bec3cb"/><stop offset=".31" stop-color="#9096a1"/><stop offset=".51" stop-color="#6e7583"/><stop offset=".67" stop-color="#596170"/><stop offset=".77" stop-color="#525a6a"/></linearGradient><linearGradient id="linear-gradient-8" x1="776.75" y1="1065.03" x2="666.36" y2="1094.84" gradientUnits="userSpaceOnUse"><stop offset="0" stop-color="#d4d8df"/><stop offset=".89" stop-color="#525a6a"/></linearGradient><clipPath id="clippath-3"><path class="cls-9" d="m1053.12,484.14c15.36,0,27.82,12.46,27.82,27.82s-12.46,27.82-27.82,27.82c-7.68,0-14.64-3.11-19.67-8.15l-21.92,21.92c10.64,10.64,25.35,17.23,41.59,17.23,32.49,0,58.82-26.33,58.82-58.82s-26.33-58.82-58.82-58.82c-16.24,0-30.95,6.58-41.59,17.23l21.92,21.92c5.03-5.03,11.99-8.15,19.67-8.15Z"/></clipPath><linearGradient id="linear-gradient-9" x1="504.25" y1="213.16" x2="481.85" y2="526.78" gradientUnits="userSpaceOnUse"><stop offset="0" stop-color="#9da8c4"/><stop offset=".57" stop-color="#4f5669"/><stop offset="1" stop-color="#444b5c"/></linearGradient><linearGradient id="linear-gradient-10" x1="303.24" y1="305.74" x2="362.56" y2="648.46" xlink:href="#linear-gradient-9"/><linearGradient id="linear-gradient-11" x1="985.31" y1="25.58" x2="419.94" y2="935.08" xlink:href="#linear-gradient-9"/><linearGradient id="linear-gradient-12" x1="-1953.45" y1="460.02" x2="-1864.24" y2="475.6" gradientTransform="translate(-1206.59 -83.11) rotate(-176.41) scale(1 -1)" gradientUnits="userSpaceOnUse"><stop offset="0" stop-color="#666"/><stop offset=".57" stop-color="#4d4d4d"/><stop offset="1" stop-color="#333"/></linearGradient><linearGradient id="linear-gradient-13" x1="-1998.06" y1="560.05" x2="-1774.01" y2="560.05" xlink:href="#linear-gradient-12"/><linearGradient id="linear-gradient-14" x1="-2010.77" y1="646.8" x2="-1782.64" y2="646.8" gradientTransform="translate(-1206.59 -83.11) rotate(-176.41) scale(1 -1)" gradientUnits="userSpaceOnUse"><stop offset="0" stop-color="#666"/><stop offset=".19" stop-color="#4d4d4d"/><stop offset=".65" stop-color="#333"/></linearGradient></defs><g id="Surfboard"><path class="cls-19" d="m1093.97,537.77s8.97,43.52-32.24,59.67c-41.21,16.15-5.21-47.48-5.21-47.48l37.44-12.19Z"/><path class="cls-2" d="m913.3,79.94c-14.48,8.61-30.86,24.69-46.28,42.35-33.13,37.95-59.45,80.25-78.7,125.16l-11.26,26.27c-7.57,17.67-15.37,35.77-21.32,54.18-6.75,20.9-8.92,40.16-10.26,56.07-11.45,69.78-19.85,150.37-20.67,239.85-.72,79.43,9.07,151.84,17.32,215.6-.41,39.5,10.58,109.95,23.29,162.76,5.99,24.89,16.35,48.73,30.55,70.66l26.54,41.01h19.37L913.3,79.94Z"/><path class="cls-16" d="m1063.54,289.21l-7.8-27.3c-13.34-46.67-34.03-91.51-62.05-132.77-13.6-20.02-28.44-38.45-42.2-48.3l-71.34,1033h24.67l12.49-12.67c23.74-24.08,41.94-52.3,53.51-82.96,40.43-107.09,47.16-139.31,51.5-167.69,14.73-62.78,32.21-131.71,41.82-206.31,11.26-87.49,15.95-168.7,16.59-242.14,4.48-37.64-6.68-76.15-17.17-112.88Z"/><path class="cls-20" d="m871.3,1113.85L942.99,75.85c-3.19-1.43-6.29-2.29-9.26-2.45-3.49-.19-7.27.55-11.27,2.05l-71.72,1038.4h20.56Z"/><path class="cls-13" d="m850.74,1113.85L922.46,75.45c-2.94,1.1-6.01,2.62-9.16,4.49l-71.41,1033.91h8.85Z"/><path class="cls-13" d="m880.15,1113.85L951.49,80.85c-2.89-2.07-5.73-3.75-8.5-5l-71.69,1038h8.85Z"/><rect class="cls-10" x="634.9" y="1078.07" width="13.37" height="26.73"/><rect class="cls-10" x="237.27" y="1078.07" width="13.37" height="26.73"/></g><g id="Limbs"><path class="cls-29" d="m339.28,723.18c-18.19,40.96-36.94,92.22-50.53,152.69-17.09,76.03-20.78,143.25-19.77,195.54h62.63c-3.43-45.96-.81-111.32,18.67-187.84,14.7-57.72,33.76-105.46,52.72-139.82-21.24-6.86-42.48-13.71-63.71-20.57Z"/><path class="cls-8" d="m659.11,723.18c18.19,40.96,36.94,92.22,50.53,152.69,17.09,76.03,20.78,143.25,19.77,195.54-20.88,0-41.75,0-62.63,0,3.43-45.96.81-111.32-18.67-187.84-14.7-57.72-33.76-105.46-52.72-139.82,21.24-6.86,42.48-13.71,63.71-20.57Z"/><g class="cls-34"><polygon class="cls-3" points="697.14 770.32 662.74 778.69 682.85 790.63 639.21 809.22 682.89 795.42 689.09 814.97 643.81 825.98 690.48 819.84 698.62 847.02 655.26 856.46 697.82 853.38 714.83 930.93 671.94 938.03 714.83 935.72 717.78 959.03 676.55 964.61 717.78 964.61 719.59 989.39 675.15 990.43 719.59 994.67 719.59 1020.2 675.25 1020.91 720.98 1026.46 722.37 1045.11 682.63 1051.96 734.84 1063.84 763.86 930.93 697.14 770.32"/></g><path class="cls-19" d="m216.55,495.28c-27.28,25.02-61.19,64.51-80.47,120.21-16.57,47.86-16.79,91.61-16.94,122.2-.14,29.15,2.41,53.66,5.02,71.52h53.65c-1.41-17.38-2.72-41.98-1.99-71.53.94-37.93,1.73-62.96,10.88-93.4,4.87-16.22,13.94-40.03,31.84-66.55-.66-27.49-1.32-54.97-1.99-82.46Z"/><g class="cls-33"><path class="cls-3" d="m190.73,625.2s-47.76-32.4-37.25-23.57c10.51,8.83,31.78,25.7,31.78,25.7l1.44,16.95-44.28-16.95,39.84,20.87s-3.06,13.22-4.57,19.28l-40.25-8.32,40.25,12.16-2.62,17.51h-40.95l40.39,4.63-1.66,20.79-43.16,3.83h42.61v22.59l-42.61,7.22,42.05-2.42v23.79l-42.05,6.64h42.61l1.11,19.51-43.71,10.98,48.12,2.81s18.64-155.45,12.93-184.02Z"/></g><g class="cls-32"><polygon class="cls-3" points="300.94 770.32 332.95 779.73 311.56 789.06 358.87 809.22 315.18 795.42 308.98 814.97 354.27 825.98 307.6 819.84 299.46 847.02 342.81 856.46 300.26 853.38 283.25 930.93 326.14 938.03 283.25 935.72 280.3 959.03 321.53 964.61 280.3 964.61 278.48 989.39 322.93 990.43 278.48 994.67 278.48 1020.2 322.82 1020.91 277.1 1026.46 275.71 1045.11 315.44 1051.96 263.23 1063.84 234.22 930.93 300.94 770.32"/></g><path class="cls-3" d="m177.68,537.95l14.25,91.54s6.2-19.04,11.13-25.67-17.5-75.9-17.5-75.9l-7.89,10.03Z"/><path class="cls-4" d="m213.31,473.76l-44.47,15.94s29.09,110.7,32.83,120.51l11.65-8.58v-127.87Z"/><rect class="cls-19" x="269.31" y="857.66" width="92.26" height="67.93" rx="20.77" ry="20.77" transform="translate(204.04 -47.57) rotate(12.72)"/><rect class="cls-19" x="632.87" y="857.66" width="92.26" height="67.93" rx="20.77" ry="20.77" transform="translate(1537.65 1611.9) rotate(167.28)"/><path class="cls-10" d="m122.42,860.37c0-15.36,12.46-27.82,27.82-27.82s27.82,12.46,27.82,27.82c0,7.68-3.11,14.64-8.15,19.67l21.92,21.92c10.64-10.64,17.23-25.35,17.23-41.59,0-32.49-26.33-58.82-58.82-58.82s-58.82,26.33-58.82,58.82c0,16.24,6.58,30.95,17.23,41.59l21.92-21.92c-5.03-5.03-8.15-11.99-8.15-19.67Z"/><path class="cls-10" d="m1053.12,484.14c15.36,0,27.82,12.46,27.82,27.82s-12.46,27.82-27.82,27.82c-7.68,0-14.64-3.11-19.67-8.15l-21.92,21.92c10.64,10.64,25.35,17.23,41.59,17.23,32.49,0,58.82-26.33,58.82-58.82s-26.33-58.82-58.82-58.82c-16.24,0-30.95,6.58-41.59,17.23l21.92,21.92c5.03-5.03,11.99-8.15,19.67-8.15Z"/><path class="cls-3" d="m318.14,775.58l61.65,17.28s14.36-31.52,21.77-41.7-62.28-27.98-62.28-27.98c0,0-18.63,46.07-21.14,52.4Z"/><path class="cls-3" d="m597.64,747.89l61.47-24.71s18.2,44.26,20.74,51.3l-62.5,15.36s-17.46-37.81-19.71-41.95Z"/><path class="cls-17" d="m293.11,857.9c18.94,4.27,37.89,8.54,56.83,12.82,1.05.35,6.05,2.13,8.36,7.24.99,2.2,1.14,4.24,1.11,5.57-26.37-6.31-52.75-12.63-79.12-18.94.9-1.18,2.72-3.26,5.72-4.81,2.93-1.51,5.62-1.81,7.09-1.87Z"/><path class="cls-17" d="m702.03,857.9c-18.94,4.27-37.89,8.54-56.83,12.82-1.05.35-6.05,2.13-8.36,7.24-.99,2.2-1.14,4.24-1.11,5.57,26.37-6.31,52.75-12.63,79.12-18.94-.9-1.18-2.72-3.26-5.72-4.81-2.93-1.51-5.62-1.81-7.09-1.87Z"/><path class="cls-3" d="m269.98,883.53s-2.22,8.99,10.31,18.43c12.54,9.44,48.79,19.12,48.79,19.12l23.1,2.34s-4.88,10.23-21.55,6.47c-16.67-3.76-50.33-11.05-50.33-11.05,0,0-19.42-6.15-10.31-35.3Z"/><path class="cls-3" d="m724.59,883.53s2.22,8.99-10.31,18.43c-12.54,9.44-48.79,19.12-48.79,19.12l-23.1,2.34s4.88,10.23,21.55,6.47c16.67-3.76,50.33-11.05,50.33-11.05,0,0,19.42-6.15,10.31-35.3Z"/><path class="cls-23" d="m82.17,610.47s109.13,33.09,113.43,41.76,0,21.36,0,21.36l1.91,4.65s2.1,23.75-6.78,25.55-122.31-6.65-122.31-6.65c0,0,9.45-39.62,14.61-46.95l-.86-39.71Z"/><path class="cls-14" d="m197.02,667.48s-80.47-.53-89.92-2.47,88.5,8.57,88.5,8.57l1.42-6.11Z"/><path class="cls-21" d="m89,616.88l70.06,21.36-63.74-13.57s38.49,13,36.38,13.57-44.2,17.4-44.2,17.4l9.32-24.33-7.82-14.42Z"/><path class="cls-18" d="m283.24,1050.05h32.43c21.68,0,39.29,17.6,39.29,39.29v24.52h-111v-24.52c0-21.68,17.6-39.29,39.29-39.29Z"/><path class="cls-25" d="m680.87,1050.05h32.43c21.68,0,39.29,17.6,39.29,39.29v24.52h-111v-24.52c0-21.68,17.6-39.29,39.29-39.29Z"/><path class="cls-19" d="m652.68,1104.8h87.81s-6.53-20.05-43.9-20.05-43.9,20.05-43.9,20.05Z"/><path class="cls-19" d="m255.55,1104.8h87.81s-6.53-20.05-43.9-20.05-43.9,20.05-43.9,20.05Z"/><path class="cls-17" d="m316.56,1059.41s6.39,21.14,19.35,28.05,9.71-9.39,9.71-9.39c0,0-8.94-16.62-29.06-18.66Z"/><path class="cls-17" d="m712.31,1059.41s6.39,21.14,19.35,28.05,9.71-9.39,9.71-9.39c0,0-8.94-16.62-29.06-18.66Z"/><g class="cls-35"><path class="cls-6" d="m1030.83,489.67s10.34-9.7,21.22-9.7,32.32,7.01,32.64,31.99c.32,24.97-24.32,31.06-24.32,31.06,0,0-17.36,1.87-26.92-11.38-9.56-13.26-2.62-41.96-2.62-41.96Z"/><path class="cls-17" d="m1013.51,472.36s23.89-22.25,54.86-13.17,23.16,8.25,23.16,8.25l-.59-23.69s-68.58-6.13-75.16-4.09-10.45,30.66-10.45,31.34,8.17,1.36,8.17,1.36Z"/></g></g><g id="Layer_2"><polygon class="cls-22" points="201.66 386.34 501.24 254.94 781.89 389.37 490.69 513.97 201.66 386.34"/><polyline class="cls-28" points="493.58 509.62 495.98 801.55 212.17 675.41 201.66 386.34"/><polygon class="cls-7" points="493.36 509.85 495.98 801.55 777.17 667.52 782.43 388.96 493.36 509.85"/><path class="cls-1" d="m535.38,590.06l211.3-96.94c2.7-1.24,4.5-3.86,4.69-6.83l3.46-55.16c.38-6.05-5.8-10.34-11.33-7.88l-214.31,95.38c-2.89,1.29-4.76,4.14-4.79,7.31l-.45,56.73c-.05,5.91,6.06,9.86,11.43,7.4Z"/><path class="cls-5" d="m524.71,586.21c1.85,3.79,6.46,5.76,10.67,3.86l211.31-96.95c2.69-1.22,4.49-3.85,4.68-6.82l3.46-55.16c.32-5.09-3.97-8.95-8.66-8.59.58,1.18.86,2.55.77,4.01l-3.46,55.16c-.19,2.97-1.99,5.6-4.68,6.82l-211.31,96.95c-.92.39-1.84.66-2.78.72Z"/><path class="cls-11" d="m538.19,677.49l211.3-96.94c2.7-1.24,4.5-3.86,4.69-6.83l3.46-55.16c.38-6.05-5.8-10.34-11.33-7.88l-214.31,95.38c-2.89,1.29-4.76,4.14-4.79,7.31l-.45,56.73c-.05,5.91,6.06,9.86,11.43,7.4Z"/><path class="cls-5" d="m527.51,673.64c1.85,3.79,6.46,5.76,10.67,3.86l211.31-96.95c2.69-1.22,4.49-3.85,4.68-6.82l3.46-55.16c.32-5.09-3.97-8.95-8.66-8.59.58,1.18.86,2.55.77,4.01l-3.46,55.16c-.19,2.97-1.99,5.6-4.68,6.82l-211.31,96.95c-.92.39-1.84.66-2.78.72Z"/><path class="cls-15" d="m541.37,764.6l215.37-96.69c2.7-1.24,4.5-3.86,4.69-6.83l3.46-55.16c.38-6.05-5.8-10.34-11.33-7.88l-218.38,95.12c-2.89,1.29-4.76,4.14-4.79,7.31l-.45,56.73c-.05,5.91,6.06,9.86,11.43,7.4Z"/><path class="cls-5" d="m530.69,760.75c1.85,3.79,6.46,5.76,10.67,3.86l215.39-96.69c2.69-1.22,4.49-3.85,4.68-6.82l3.46-55.16c.32-5.09-3.97-8.95-8.66-8.59.58,1.18.86,2.55.77,4.01l-3.46,55.16c-.19,2.97-1.99,5.6-4.68,6.82l-215.39,96.69c-.92.39-1.84.66-2.78.72Z"/><circle class="cls-27" cx="547.17" cy="531.38" r="6.39"/><circle class="cls-27" cx="547.96" cy="556.34" r="6.39"/><circle class="cls-30" cx="577.59" cy="518.34" r="6.39"/><circle class="cls-27" cx="581.28" cy="541.85" r="6.39"/><circle class="cls-27" cx="608.02" cy="505.31" r="6.39"/><circle class="cls-27" cx="608.81" cy="530.26" r="6.39"/><circle class="cls-24" cx="638.44" cy="490.82" r="6.39"/><circle class="cls-27" cx="639.23" cy="515.77" r="6.39"/><circle class="cls-27" cx="668.86" cy="477.78" r="6.39"/><circle class="cls-5" cx="669.66" cy="502.74" r="6.39"/><circle class="cls-27" cx="699.29" cy="463.29" r="6.39"/><circle class="cls-27" cx="700.08" cy="489.7" r="6.39"/><circle class="cls-27" cx="728.26" cy="448.8" r="6.39"/><circle class="cls-27" cx="729.06" cy="473.76" r="6.39"/><circle class="cls-30" cx="550.07" cy="616.86" r="6.39"/><circle class="cls-24" cx="550.86" cy="641.82" r="6.39"/><circle class="cls-27" cx="580.49" cy="603.82" r="6.39"/><circle class="cls-24" cx="584.18" cy="627.33" r="6.39"/><circle class="cls-27" cx="610.91" cy="590.78" r="6.39"/><circle class="cls-24" cx="611.71" cy="615.74" r="6.39"/><circle class="cls-27" cx="641.34" cy="576.29" r="6.39"/><circle class="cls-24" cx="642.13" cy="601.25" r="6.39"/><circle class="cls-27" cx="671.76" cy="563.26" r="6.39"/><circle class="cls-24" cx="672.56" cy="588.21" r="6.39"/><circle class="cls-5" cx="702.19" cy="548.77" r="6.39"/><circle class="cls-24" cx="702.98" cy="575.17" r="6.39"/><circle class="cls-27" cx="731.16" cy="534.28" r="6.39"/><circle class="cls-24" cx="731.96" cy="559.24" r="6.39"/><circle class="cls-27" cx="557.31" cy="703.79" r="6.39"/><circle class="cls-27" cx="558.1" cy="728.74" r="6.39"/><circle class="cls-27" cx="587.73" cy="690.75" r="6.39"/><circle class="cls-27" cx="591.43" cy="714.26" r="6.39"/><circle class="cls-5" cx="618.16" cy="677.71" r="6.39"/><circle class="cls-27" cx="618.95" cy="702.67" r="6.39"/><circle class="cls-27" cx="648.58" cy="663.22" r="6.39"/><circle class="cls-27" cx="649.38" cy="688.18" r="6.39"/><circle class="cls-24" cx="679.01" cy="650.18" r="6.39"/><circle class="cls-27" cx="679.8" cy="675.14" r="6.39"/><circle class="cls-27" cx="709.43" cy="635.69" r="6.39"/><circle class="cls-5" cx="710.22" cy="662.1" r="6.39"/><circle class="cls-27" cx="738.4" cy="621.21" r="6.39"/><circle class="cls-27" cx="739.2" cy="646.16" r="6.39"/><polygon class="cls-26" points="217.91 406.01 230.98 665.02 477.59 777.89 477.59 515.1 217.91 406.01"/><polygon class="cls-5" points="217.91 406.01 228.17 409.85 239.08 662.61 230.98 665.02 217.91 406.01"/><polygon class="cls-5" points="239.08 662.61 477.59 772.64 477.59 777.89 230.98 665.02 239.08 662.61"/><line class="cls-31" x1="263.23" y1="658.34" x2="260.46" y2="557.13"/><line class="cls-31" x1="278.48" y1="665.27" x2="275.71" y2="564.07"/><line class="cls-31" x1="293.73" y1="673.59" x2="290.96" y2="572.38"/><line class="cls-31" x1="308.98" y1="681.91" x2="306.21" y2="580.7"/><line class="cls-31" x1="324.23" y1="688.84" x2="321.46" y2="587.63"/><line class="cls-31" x1="339.48" y1="695.77" x2="336.71" y2="594.57"/><line class="cls-31" x1="358.58" y1="702.83" x2="355.81" y2="601.63"/><line class="cls-31" x1="373.83" y1="709.77" x2="371.06" y2="608.56"/><line class="cls-31" x1="389.08" y1="718.08" x2="386.31" y2="616.88"/><line class="cls-31" x1="404.33" y1="726.4" x2="401.56" y2="625.2"/><line class="cls-31" x1="419.58" y1="733.33" x2="416.81" y2="632.13"/><line class="cls-31" x1="434.83" y1="740.27" x2="432.06" y2="639.06"/><polygon class="cls-12" points="250.49 382.04 492.04 496.46 733.59 388.4 492.04 483.75 250.49 382.04"/><polygon class="cls-12" points="237.78 382.04 498.4 267.62 733.59 382.04 498.4 273.98 237.78 382.04"/><g class="cls-36"><g id="_1"><path class="cls-13" d="m357.95,579.11l-.73-.25.09-2.86.02-.46.03-.51c-.12.13-.21.22-.26.26l-.41.33-.34-.75,1.15-.89.6.2-.15,4.95Z"/></g><g id="_0"><path class="cls-13" d="m355.85,575.89c-.02.86-.14,1.46-.36,1.81-.21.35-.52.44-.93.3-.36-.09-.69-.46-.87-.95-.19-.5-.27-1.16-.25-1.99s.14-1.47.34-1.82c.21-.35.51-.45.92-.31.36.09.7.45.89.95.2.52.28,1.19.26,2.02Zm-1.68-.57c-.02.6,0,1.04.07,1.33.05.31.26.55.46.53.13,0,.23-.12.27-.28.08-.24.13-.66.14-1.26s-.01-1.05-.08-1.35c-.04-.25-.18-.47-.36-.52s-.33.04-.38.28c-.07.24-.12.66-.13,1.28Z"/></g><g id="_0-2"><path class="cls-13" d="m371.72,573.86c-.05,1.24-.23,2.1-.53,2.6-.3.5-.74.66-1.31.47s-.96-.62-1.22-1.33c-.26-.71-.36-1.64-.31-2.83s.23-2.1.52-2.6c.3-.5.73-.66,1.31-.48s.97.61,1.22,1.32c.26.71.37,1.67.32,2.86Zm-2.35-.76c-.04.87,0,1.51.08,1.9.08.41.25.64.5.73s.42-.05.53-.4c.11-.35.2-.95.24-1.8s0-1.51-.08-1.93c-.09-.42-.26-.66-.49-.73s-.42.06-.53.41c-.12.36-.21.98-.24,1.83h0Z"/></g><g id="_1-2"><path class="cls-13" d="m366.91,575.84l-1.02-.34.15-4.04.04-.66.05-.72c-.18.2-.3.32-.37.38l-.58.47-.46-1.05,1.62-1.3.84.27-.27,7h-.01Z"/></g><g id="_0-3"><path class="cls-13" d="m364,571.36c-.04,1.22-.22,2.07-.51,2.56-.29.49-.73.64-1.31.45s-.96-.62-1.22-1.32c-.26-.7-.37-1.62-.33-2.79s.21-2.07.5-2.56c.29-.49.73-.65,1.3-.47s.97.61,1.23,1.31c.26.7.38,1.64.34,2.82Zm-2.35-.76c-.03.86,0,1.48.09,1.88.09.39.25.64.5.72s.42-.05.53-.4c.11-.34.2-.93.23-1.78s0-1.49-.1-1.9c-.1-.41-.26-.65-.5-.73s-.42.06-.53.4c-.11.34-.19.97-.22,1.81h0Z"/></g><g id="_1-3"><path class="cls-13" d="m348.52,569.73l-.74-.24.06-2.81.02-.45.02-.5c-.12.13-.21.22-.26.25l-.41.31-.35-.72,1.14-.88.6.19-.09,4.86Z"/></g><g id="_0-4"><path class="cls-13" d="m346.4,566.59c-.02.85-.13,1.44-.33,1.78-.2.34-.51.44-.93.3-.36-.09-.7-.44-.89-.93-.2-.49-.29-1.14-.27-1.96.01-.86.12-1.45.33-1.79.2-.34.51-.44.92-.31.36.08.7.44.9.93.19.5.28,1.16.27,1.98Zm-1.7-.56c-.01.59.01,1.02.09,1.3.06.31.26.54.47.52.13,0,.23-.11.27-.28.08-.23.12-.65.13-1.24s-.02-1.03-.1-1.32c-.05-.3-.26-.54-.47-.52-.13,0-.23.12-.27.28-.06.25-.11.66-.12,1.25Z"/></g><g id="_1-4"><path class="cls-13" d="m371.52,569.25l-1.05-.33.17-4.17.04-.68.05-.74c-.19.2-.31.32-.38.38l-.6.49-.47-1.07,1.68-1.36.87.26-.32,7.21h0Z"/></g><g id="_0-5"><path class="cls-13" d="m368.54,564.68c-.05,1.25-.23,2.14-.54,2.65-.31.51-.75.67-1.34.49s-.99-.63-1.25-1.33c-.27-.7-.38-1.66-.34-2.87s.22-2.14.53-2.65c.31-.51.76-.68,1.35-.5s1,.62,1.27,1.34c.27.72.38,1.68.32,2.88Zm-2.43-.75c-.03.88,0,1.53.08,1.93.09.41.26.65.51.73s.42-.06.55-.42c.12-.36.2-.96.24-1.83s0-1.53-.09-1.94c-.09-.41-.26-.67-.5-.74s-.43.06-.55.42c-.11.36-.2.96-.24,1.84Z"/></g><g id="_1-5"><path class="cls-13" d="m358.3,565.09l-1.02-.32.12-3.98.03-.65.04-.71c-.18.19-.31.31-.38.37l-.58.46-.47-1.03,1.62-1.29.84.25-.21,6.88Z"/></g><g id="_0-6"><path class="cls-13" d="m355.35,560.71c-.03,1.2-.2,2.04-.49,2.52-.29.48-.73.64-1.31.46s-.97-.6-1.24-1.29c-.27-.69-.39-1.59-.36-2.74s.19-2.04.48-2.52c.29-.48.72-.65,1.31-.47s.98.59,1.25,1.27c.28.69.4,1.61.37,2.77Zm-2.37-.73c-.02.83.02,1.46.11,1.84.1.4.26.62.51.7s.42-.05.53-.39c.11-.34.19-.92.21-1.75s-.02-1.46-.12-1.85c-.1-.39-.27-.64-.5-.71s-.42.06-.53.4c-.11.34-.2.91-.21,1.76h0Z"/></g><g id="_1-6"><path class="cls-13" d="m350.56,562.65l-1.02-.32.09-3.92.03-.64.04-.69c-.18.19-.29.31-.36.37l-.57.45-.47-1.02,1.61-1.26.84.25-.17,6.78Z"/></g><g id="_0-7"><path class="cls-13" d="m347.58,558.32c-.02,1.18-.18,2.01-.47,2.48-.28.48-.73.63-1.3.44s-.98-.6-1.25-1.27c-.27-.68-.4-1.57-.38-2.7s.18-2.01.46-2.48c.28-.48.72-.64,1.3-.46s.98.58,1.26,1.26c.28.68.41,1.59.39,2.73Zm-2.37-.73c-.01.82.03,1.44.12,1.82.09.39.26.61.51.69s.42-.05.52-.39c.11-.33.18-.9.2-1.72s-.03-1.44-.13-1.82c-.1-.38-.26-.63-.5-.7s-.42.06-.53.39c-.11.33-.19.9-.2,1.73h0Z"/></g><g id="_0-8"><path class="cls-13" d="m365.37,548.02c-.38-.97-.96-1.56-1.76-1.78s-1.45,0-1.86.72c-.42.72-.66,1.92-.71,3.64s.11,2.96.48,3.91c.38.96.96,1.56,1.75,1.79s1.44,0,1.86-.71c.43-.7.67-1.92.74-3.63.07-1.66-.09-2.98-.49-3.94Zm-1.27,6.06c-.17.47-.41.67-.77.57s-.59-.44-.71-.99c-.13-.57-.17-1.45-.13-2.64s.14-2.03.31-2.5c.17-.47.44-.67.77-.58s.57.42.7.98c.14.56.18,1.46.14,2.65-.04,1.19-.14,2.03-.31,2.51Z"/></g><g id="_1-7"><path class="cls-13" d="m359.02,554.92l-1.45-.42.17-5.59.04-.91.05-1c-.25.27-.43.44-.53.52l-.82.67-.67-1.42,2.3-1.86,1.2.33-.28,9.67Z"/></g><g id="_1-8"><path class="cls-13" d="m353.52,553.31l-1.45-.42.14-5.53.03-.9.05-.99c-.25.27-.42.44-.53.52l-.82.66-.68-1.4,2.29-1.83,1.2.33-.25,9.56h.02Z"/></g><g id="_1-9"><path class="cls-13" d="m348.03,551.7l-1.45-.42.11-5.47.03-.89.04-.98c-.25.27-.42.43-.52.51l-.81.66-.69-1.39,2.28-1.81,1.2.33-.17,9.47Z"/></g><g id="_10"><path class="cls-13" d="m365.4,541.77l-1.47-.38.2-5.65.04-.92.06-1.01c-.26.28-.44.46-.54.55l-.84.71-.68-1.41,2.35-1.95,1.23.3-.34,9.77h0Z"/><path class="cls-13" d="m371.89,534.61c-.38-.97-.97-1.55-1.78-1.74s-1.46.06-1.9.78c-.43.74-.68,1.96-.74,3.7s.1,2.97.47,3.92c.38.96.97,1.54,1.77,1.75s1.46-.04,1.89-.76c.44-.72.69-1.96.77-3.69.06-1.67-.09-2.99-.48-3.97Zm-1.33,6.15c-.18.48-.43.69-.78.6s-.59-.42-.72-.98c-.12-.57-.17-1.46-.12-2.66s.15-2.07.33-2.55c.18-.48.45-.69.79-.61s.57.41.71.97c.14.56.18,1.45.13,2.67s-.15,2.07-.33,2.56Z"/></g><g id="_10-2"><path class="cls-13" d="m348.32,537.31l-1.47-.38.11-5.47.03-.89.04-.98c-.25.27-.43.44-.53.52l-.83.68-.7-1.37,2.31-1.87,1.22.29-.17,9.47Z"/><path class="cls-13" d="m355.22,534.28c-.05,1.68-.28,2.87-.7,3.57-.42.69-1.05.93-1.87.72s-1.4-.78-1.79-1.71c-.39-.93-.57-2.2-.53-3.8s.27-2.86.68-3.58c.42-.7,1.04-.95,1.88-.75s1.41.76,1.8,1.7c.42.95.59,2.23.54,3.85Zm-3.42-.86c-.03,1.16.03,2.02.16,2.58.13.54.38.87.73.96s.6-.11.77-.57c.17-.47.26-1.29.29-2.47s-.03-2.04-.17-2.59c-.14-.54-.39-.87-.72-.95s-.6.11-.77.58c-.17.47-.26,1.29-.29,2.47h0Z"/></g><g id="Layer_2-2"><path id="cloud" class="cls-13" d="m370.29,526.68c-.77-8.05-5.6-15-11.67-16.22l-2.19-.44c-1.36-11.2-8.4-20.34-16.94-21.74s-15.81,4.96-17.39,14.93c-6.21-.42-10.97,5.04-10.84,12.84.14,8.37,5.66,16.62,12.3,18.41l17.83,4.8c.95.22,1.7-.65,1.69-1.92,0-1.24-.73-2.41-1.63-2.67l-17.92-4.64c-4.78-1.24-8.74-7.14-8.82-13.15s3.83-10.06,8.73-9.04c1.81.37,3.58,1.45,5.05,3.11.69.79,1.65.91,2.26.26h0c.69-.74.69-2.15.01-3.17-.07-.1-.14-.19-.22-.28-1.45-1.63-3.14-2.88-4.91-3.65,1.5-7.63,7.13-12.39,13.75-11.25,7.01,1.21,12.76,8.95,13.61,18.23-.57.27-1.11.59-1.62.96-.81.58-1.02,1.99-.5,3.18.05.12.11.24.19.35h0c.6.94,1.55,1.24,2.25.71,1.51-1.1,3.3-1.48,5.11-1.08,4.32.91,7.77,5.87,8.35,11.59.12,1.17.8,2.17,1.63,2.36h0c.95.24,1.77-.65,1.84-2,.03-.18.03-.35.02-.49Z"/></g></g></g></svg>